
<global>
amp_veltrack=0
ampeg_release=1.5
</global>

<group>
group_label=PP
xf_cccurve=gain
xfin_hicc1=42
xfout_hicc1=85
xfout_locc1=42

<region>
hikey=a#3
hivel=127
lokey=a3
loop_end=297178
loop_mode=loop_continuous
loop_start=100653
loop_xfade=19523
lovel=1
offset=8032
pitch_keycenter=a#3
sample=Cellos_sul_tasto_PP_A#3.opus
</region>

<region>
hikey=a#4
hivel=127
lokey=a4
loop_end=297179
loop_mode=loop_continuous
loop_start=100653
loop_xfade=19523
lovel=1
offset=6950
pitch_keycenter=a#4
sample=Cellos_sul_tasto_PP_A#4.opus
</region>

<region>
hikey=c4
hivel=127
lokey=b3
loop_end=297178
loop_mode=loop_continuous
loop_start=100653
loop_xfade=19523
lovel=1
pitch_keycenter=c4
sample=Cellos_sul_tasto_PP_C4.opus
</region>

<region>
hikey=c5
hivel=127
lokey=b4
loop_end=297112
loop_mode=loop_continuous
loop_start=100631
loop_xfade=19518
lovel=1
offset=3350
pitch_keycenter=c5
sample=Cellos_sul_tasto_PP_C5.opus
</region>

<region>
hikey=d4
hivel=127
lokey=c#4
loop_end=297178
loop_mode=loop_continuous
loop_start=100653
loop_xfade=19523
lovel=1
offset=7199
pitch_keycenter=d4
sample=Cellos_sul_tasto_PP_D4.opus
</region>

<region>
hikey=d5
hivel=127
lokey=c#5
loop_end=297179
loop_mode=loop_continuous
loop_start=100653
loop_xfade=19523
lovel=1
offset=12255
pitch_keycenter=d5
sample=Cellos_sul_tasto_PP_D5.opus
</region>

<region>
hikey=e4
hivel=127
lokey=d#4
loop_end=297178
loop_mode=loop_continuous
loop_start=100653
loop_xfade=19523
lovel=1
offset=10236
pitch_keycenter=e4
sample=Cellos_sul_tasto_PP_E4.opus
</region>

<region>
hikey=e5
hivel=127
lokey=d#5
loop_end=297179
loop_mode=loop_continuous
loop_start=100653
loop_xfade=19523
lovel=1
offset=17999
pitch_keycenter=e5
sample=Cellos_sul_tasto_PP_E5.opus
</region>

<region>
hikey=f#4
hivel=127
lokey=f4
loop_end=297178
loop_mode=loop_continuous
loop_start=100653
loop_xfade=19523
lovel=1
offset=12430
pitch_keycenter=f#4
sample=Cellos_sul_tasto_PP_F#4.opus
</region>

<region>
hikey=F6
hivel=127
lokey=f5
loop_end=297179
loop_mode=loop_continuous
loop_start=100653
loop_xfade=19523
lovel=1
offset=3448
pitch_keycenter=F#5
sample=Cellos_sul_tasto_PP_F#5.opus
</region>

<region>
hikey=g#3
hivel=127
lokey=g3
loop_end=297178
loop_mode=loop_continuous
loop_start=100653
loop_xfade=19523
lovel=1
offset=23889
pitch_keycenter=g#3
sample=Cellos_sul_tasto_PP_G#3.opus
</region>

<region>
hikey=g#4
hivel=127
lokey=g4
loop_end=297179
loop_mode=loop_continuous
loop_start=100653
loop_xfade=19523
lovel=1
offset=13186
pitch_keycenter=g#4
sample=Cellos_sul_tasto_PP_G#4.opus
</region>

<region>
hikey=a#2
hivel=127
lokey=a2
loop_end=297178
loop_mode=loop_continuous
loop_start=100653
loop_xfade=19523
lovel=1
offset=12209
pitch_keycenter=a#2
sample=Cellos_sul_tasto_PP_A#2.opus
</region>

<region>
hivel=127
key=c2
loop_end=289413
loop_mode=loop_continuous
loop_start=98023
loop_xfade=19013
lovel=1
offset=4538
sample=Cellos_sul_tasto_PP_C2.opus
</region>

<region>
hikey=c3
hivel=127
lokey=b2
loop_end=297178
loop_mode=loop_continuous
loop_start=100653
loop_xfade=19523
lovel=1
offset=16931
pitch_keycenter=c3
sample=Cellos_sul_tasto_PP_C3.opus
</region>

<region>
hikey=d2
hivel=127
lokey=c#2
loop_end=292207
loop_mode=loop_continuous
loop_start=98969
loop_xfade=19196
lovel=1
offset=8738
pitch_keycenter=d2
sample=Cellos_sul_tasto_PP_D2.opus
</region>

<region>
hikey=d3
hivel=127
lokey=c#3
loop_end=297178
loop_mode=loop_continuous
loop_start=100653
loop_xfade=19523
lovel=1
offset=17766
pitch_keycenter=d3
sample=Cellos_sul_tasto_PP_D3.opus
</region>

<region>
hikey=e2
hivel=127
lokey=d#2
loop_end=296624
loop_mode=loop_continuous
loop_start=100465
loop_xfade=19486
lovel=1
offset=18425
pitch_keycenter=e2
sample=Cellos_sul_tasto_PP_E2.opus
</region>

<region>
hikey=e3
hivel=127
lokey=d#3
loop_end=289993
loop_mode=loop_continuous
loop_start=98219
loop_xfade=19051
lovel=1
offset=5170
pitch_keycenter=e3
sample=Cellos_sul_tasto_PP_E3.opus
</region>

<region>
hikey=f#2
hivel=127
lokey=f2
loop_end=297179
loop_mode=loop_continuous
loop_start=100653
loop_xfade=19523
lovel=1
offset=12300
pitch_keycenter=f#2
sample=Cellos_sul_tasto_PP_F#2.opus
</region>

<region>
hikey=f#3
hivel=127
lokey=f3
loop_end=297178
loop_mode=loop_continuous
loop_start=100653
loop_xfade=19523
lovel=1
offset=25391
pitch_keycenter=f#3
sample=Cellos_sul_tasto_PP_F#3.opus
</region>

<region>
hikey=g#2
hivel=127
lokey=g2
loop_end=297178
loop_mode=loop_continuous
loop_start=100653
loop_xfade=19523
lovel=1
offset=16654
pitch_keycenter=g#2
sample=Cellos_sul_tasto_PP_G#2.opus
</region>
</group>

<group>
group_label=MF
xf_cccurve=gain
xfin_hicc1=85
xfin_locc1=42
xfout_hicc1=127
xfout_locc1=85

<region>
hikey=a#2
hivel=127
lokey=a2
loop_end=274686
loop_mode=loop_continuous
loop_start=93035
loop_xfade=18045
lovel=1
offset=4316
pitch_keycenter=a#2
sample=Cellos_sul_tasto_MF_A#2.opus
</region>

<region>
hikey=a#3
hivel=127
lokey=a3
loop_end=273501
loop_mode=loop_continuous
loop_start=92634
loop_xfade=17967
lovel=1
offset=4382
pitch_keycenter=a#3
sample=Cellos_sul_tasto_MF_A#3.opus
</region>

<region>
hikey=a#4
hivel=127
lokey=a4
loop_end=282289
loop_mode=loop_continuous
loop_start=95610
loop_xfade=18545
lovel=1
offset=3903
pitch_keycenter=a#4
sample=Cellos_sul_tasto_MF_A#4.opus
</region>

<region>
hivel=127
key=c2
loop_end=265994
loop_mode=loop_continuous
loop_start=90091
loop_xfade=17474
lovel=1
offset=1322
sample=Cellos_sul_tasto_MF_C2.opus
</region>

<region>
hikey=c3
hivel=127
lokey=b2
loop_end=282542
loop_mode=loop_continuous
loop_start=95696
loop_xfade=18561
lovel=1
offset=2622
pitch_keycenter=c3
sample=Cellos_sul_tasto_MF_C3.opus
</region>

<region>
hikey=c4
hivel=127
lokey=b3
loop_end=286554
loop_mode=loop_continuous
loop_start=97054
loop_xfade=18825
lovel=1
offset=2119
pitch_keycenter=c4
sample=Cellos_sul_tasto_MF_C4.opus
</region>

<region>
hikey=c5
hivel=127
lokey=b4
loop_end=284284
loop_mode=loop_continuous
loop_start=96286
loop_xfade=18676
lovel=1
offset=5015
pitch_keycenter=c5
sample=Cellos_sul_tasto_MF_C5.opus
</region>

<region>
hikey=d2
hivel=127
lokey=c#2
loop_end=290318
loop_mode=loop_continuous
loop_start=98330
loop_xfade=19072
lovel=1
offset=3243
pitch_keycenter=d2
sample=Cellos_sul_tasto_MF_D2.opus
</region>

<region>
hikey=d3
hivel=127
lokey=c#3
loop_end=282172
loop_mode=loop_continuous
loop_start=95570
loop_xfade=18537
lovel=1
offset=3275
pitch_keycenter=d3
sample=Cellos_sul_tasto_MF_D3.opus
</region>

<region>
hikey=d4
hivel=127
lokey=c#4
loop_end=280008
loop_mode=loop_continuous
loop_start=94837
loop_xfade=18395
lovel=1
offset=7384
pitch_keycenter=d4
sample=Cellos_sul_tasto_MF_D4.opus
</region>

<region>
hikey=d5
hivel=127
lokey=c#5
loop_end=286105
loop_mode=loop_continuous
loop_start=96903
loop_xfade=18795
lovel=1
offset=28527
pitch_keycenter=d5
sample=Cellos_sul_tasto_MF_D5.opus
</region>

<region>
hikey=e2
hivel=127
lokey=d#2
loop_end=270928
loop_mode=loop_continuous
loop_start=91762
loop_xfade=17798
lovel=1
offset=4151
pitch_keycenter=e2
sample=Cellos_sul_tasto_MF_E2.opus
</region>

<region>
hikey=e3
hivel=127
lokey=d#3
loop_end=279343
loop_mode=loop_continuous
loop_start=94612
loop_xfade=18351
lovel=1
offset=3624
pitch_keycenter=e3
sample=Cellos_sul_tasto_MF_E3.opus
</region>

<region>
hikey=e4
hivel=127
lokey=d#4
loop_end=279730
loop_mode=loop_continuous
loop_start=94743
loop_xfade=18377
lovel=1
offset=3112
pitch_keycenter=e4
sample=Cellos_sul_tasto_MF_E4.opus
</region>

<region>
hikey=e5
hivel=127
lokey=d#5
loop_end=278789
loop_mode=loop_continuous
loop_start=94425
loop_xfade=18315
lovel=1
offset=3146
pitch_keycenter=e5
sample=Cellos_sul_tasto_MF_E5.opus
</region>

<region>
hikey=f#2
hivel=127
lokey=f2
loop_end=288411
loop_mode=loop_continuous
loop_start=97684
loop_xfade=18947
lovel=1
offset=5379
pitch_keycenter=f#2
sample=Cellos_sul_tasto_MF_F#2.opus
</region>

<region>
hikey=f#3
hivel=127
lokey=f3
loop_end=278965
loop_mode=loop_continuous
loop_start=94484
loop_xfade=18326
lovel=1
offset=5006
pitch_keycenter=f#3
sample=Cellos_sul_tasto_MF_F#3.opus
</region>

<region>
hikey=f#4
hivel=127
lokey=f4
loop_end=274771
loop_mode=loop_continuous
loop_start=93064
loop_xfade=18051
lovel=1
offset=10798
pitch_keycenter=f#4
sample=Cellos_sul_tasto_MF_F#4.opus
</region>

<region>
hikey=F6
hivel=127
lokey=f5
loop_end=270104
loop_mode=loop_continuous
loop_start=91483
loop_xfade=17744
lovel=1
offset=4906
pitch_keycenter=F#5
sample=Cellos_sul_tasto_MF_F#5.opus
</region>

<region>
hikey=g#2
hivel=127
lokey=g2
loop_end=279836
loop_mode=loop_continuous
loop_start=94779
loop_xfade=18384
lovel=1
offset=4609
pitch_keycenter=g#2
sample=Cellos_sul_tasto_MF_G#2.opus
</region>

<region>
hikey=g#3
hivel=127
lokey=g3
loop_end=268876
loop_mode=loop_continuous
loop_start=91067
loop_xfade=17664
lovel=1
offset=5841
pitch_keycenter=g#3
sample=Cellos_sul_tasto_MF_G#3.opus
</region>

<region>
hikey=g#4
hivel=127
lokey=g4
loop_end=281508
loop_mode=loop_continuous
loop_start=95345
loop_xfade=18493
lovel=1
offset=6172
pitch_keycenter=g#4
sample=Cellos_sul_tasto_MF_G#4.opus
</region>
</group>

<group>
group_label=FF
xf_cccurve=gain
xfin_hicc1=127
xfin_locc1=85
xfout_hicc1=127
xfout_locc1=127

<region>
hikey=a#2
hivel=127
lokey=a2
loop_end=278198
loop_mode=loop_continuous
loop_start=94224
loop_xfade=18276
lovel=1
offset=768
pitch_keycenter=a#2
sample=Cellos_sul_tasto_FF_A#2.opus
</region>

<region>
hikey=a#3
hivel=127
lokey=a3
loop_end=287739
loop_mode=loop_continuous
loop_start=97456
loop_xfade=18903
lovel=1
offset=1822
pitch_keycenter=a#3
sample=Cellos_sul_tasto_FF_A#3.opus
</region>

<region>
hikey=a#4
hivel=127
lokey=a4
loop_end=285634
loop_mode=loop_continuous
loop_start=96743
loop_xfade=18764
lovel=1
offset=2902
pitch_keycenter=a#4
sample=Cellos_sul_tasto_FF_A#4.opus
</region>

<region>
hivel=127
key=c2
loop_end=268212
loop_mode=loop_continuous
loop_start=90842
loop_xfade=17620
lovel=1
offset=2344
sample=Cellos_sul_tasto_FF_C2.opus
</region>

<region>
hikey=c3
hivel=127
lokey=b2
loop_end=279774
loop_mode=loop_continuous
loop_start=94758
loop_xfade=18380
lovel=1
offset=1760
pitch_keycenter=c3
sample=Cellos_sul_tasto_FF_C3.opus
</region>

<region>
hikey=c4
hivel=127
lokey=b3
loop_end=287622
loop_mode=loop_continuous
loop_start=97416
loop_xfade=18895
lovel=1
offset=7656
pitch_keycenter=c4
sample=Cellos_sul_tasto_FF_C4.opus
</region>

<region>
hikey=c5
hivel=127
lokey=b4
loop_end=286019
loop_mode=loop_continuous
loop_start=96873
loop_xfade=18790
lovel=1
offset=5421
pitch_keycenter=c5
sample=Cellos_sul_tasto_FF_C5.opus
</region>

<region>
hikey=d2
hivel=127
lokey=c#2
loop_end=275470
loop_mode=loop_continuous
loop_start=93300
loop_xfade=18097
lovel=1
offset=673
pitch_keycenter=d2
sample=Cellos_sul_tasto_FF_D2.opus
</region>

<region>
hikey=d3
hivel=127
lokey=c#3
loop_end=275412
loop_mode=loop_continuous
loop_start=93281
loop_xfade=18093
lovel=1
offset=1162
pitch_keycenter=d3
sample=Cellos_sul_tasto_FF_D3.opus
</region>

<region>
hikey=d4
hivel=127
lokey=c#4
loop_end=285045
loop_mode=loop_continuous
loop_start=96543
loop_xfade=18726
lovel=1
offset=4455
pitch_keycenter=d4
sample=Cellos_sul_tasto_FF_D4.opus
</region>

<region>
hikey=d5
hivel=127
lokey=c#5
loop_end=285289
loop_mode=loop_continuous
loop_start=96626
loop_xfade=18742
lovel=1
offset=6902
pitch_keycenter=d5
sample=Cellos_sul_tasto_FF_D5.opus
</region>

<region>
hikey=e2
hivel=127
lokey=d#2
loop_end=271955
loop_mode=loop_continuous
loop_start=92110
loop_xfade=17866
lovel=1
offset=1244
pitch_keycenter=e2
sample=Cellos_sul_tasto_FF_E2.opus
</region>

<region>
hikey=e3
hivel=127
lokey=d#3
loop_end=276297
loop_mode=loop_continuous
loop_start=93580
loop_xfade=18151
lovel=1
offset=1765
pitch_keycenter=e3
sample=Cellos_sul_tasto_FF_E3.opus
</region>

<region>
hikey=e4
hivel=127
lokey=d#4
loop_end=289638
loop_mode=loop_continuous
loop_start=98099
loop_xfade=19028
lovel=1
offset=1579
pitch_keycenter=e4
sample=Cellos_sul_tasto_FF_E4.opus
</region>

<region>
hikey=e5
hivel=127
lokey=d#5
loop_end=284963
loop_mode=loop_continuous
loop_start=96516
loop_xfade=18720
lovel=1
offset=1761
pitch_keycenter=e5
sample=Cellos_sul_tasto_FF_E5.opus
</region>

<region>
hikey=f#2
hivel=127
lokey=f2
loop_end=273900
loop_mode=loop_continuous
loop_start=92769
loop_xfade=17994
lovel=1
offset=5110
pitch_keycenter=f#2
sample=Cellos_sul_tasto_FF_F#2.opus
</region>

<region>
hikey=f#3
hivel=127
lokey=f3
loop_end=286681
loop_mode=loop_continuous
loop_start=97097
loop_xfade=18833
lovel=1
offset=2425
pitch_keycenter=f#3
sample=Cellos_sul_tasto_FF_F#3.opus
</region>

<region>
hikey=f#4
hivel=127
lokey=f4
loop_end=284473
loop_mode=loop_continuous
loop_start=96350
loop_xfade=18688
lovel=1
offset=2473
pitch_keycenter=f#4
sample=Cellos_sul_tasto_FF_F#4.opus
</region>

<region>
hikey=F6
hivel=127
lokey=f5
loop_end=288085
loop_mode=loop_continuous
loop_start=97573
loop_xfade=18926
lovel=1
offset=1994
pitch_keycenter=F#5
sample=Cellos_sul_tasto_FF_F#5.opus
</region>

<region>
hikey=g#2
hivel=127
lokey=g2
loop_end=278784
loop_mode=loop_continuous
loop_start=94423
loop_xfade=18314
lovel=1
offset=1559
pitch_keycenter=g#2
sample=Cellos_sul_tasto_FF_G#2.opus
</region>

<region>
hikey=g#3
hivel=127
lokey=g3
loop_end=280219
loop_mode=loop_continuous
loop_start=94909
loop_xfade=18409
lovel=1
offset=1054
pitch_keycenter=g#3
sample=Cellos_sul_tasto_FF_G#3.opus
</region>

<region>
hikey=g#4
hivel=127
lokey=g4
loop_end=285679
loop_mode=loop_continuous
loop_start=96758
loop_xfade=18767
lovel=1
offset=2473
pitch_keycenter=g#4
sample=Cellos_sul_tasto_FF_G#4.opus
</region>
</group>